STARTFONT 2.1
FONT -FontForge-Bangers-Book-R-Normal--24-240-75-75-P-107-ISO10646-1
SIZE 24 75 75
FONTBOUNDINGBOX 18 22 -1 -3
COMMENT "Generated by fontforge, http://fontforge.sourceforge.net"
COMMENT "Copyright 2010 The Bangers Project Authors (https://github.com/googlefonts/bangers)"
STARTPROPERTIES 38
FOUNDRY "FontForge"
FAMILY_NAME "Bangers"
WEIGHT_NAME "Book"
SLANT "R"
SETWIDTH_NAME "Normal"
ADD_STYLE_NAME ""
PIXEL_SIZE 24
POINT_SIZE 240
RESOLUTION_X 75
RESOLUTION_Y 75
SPACING "P"
AVERAGE_WIDTH 107
CHARSET_REGISTRY "ISO10646"
CHARSET_ENCODING "1"
FONTNAME_REGISTRY ""
CHARSET_COLLECTIONS "ISO8859-2 ISO8859-9 ISO8859-4 ISO10646-1"
FONT_NAME "Bangers-Regular"
FACE_NAME "Bangers Regular"
COPYRIGHT "Copyright 2010 The Bangers Project Authors (https://github.com/googlefonts/bangers)"
FONT_VERSION "2.100; ttfautohint (v1.8.4.7-5d5b);gftools[0.9.31]"
FONT_ASCENT 19
FONT_DESCENT 5
UNDERLINE_POSITION 0
UNDERLINE_THICKNESS 0
CAP_HEIGHT 17
RAW_ASCENT 800
RAW_DESCENT 200
NORM_SPACE 6
RELATIVE_WEIGHT 40
RELATIVE_SETWIDTH 50
SUPERSCRIPT_X 0
SUPERSCRIPT_Y 8
SUPERSCRIPT_SIZE 14
SUBSCRIPT_X 0
SUBSCRIPT_Y 1
SUBSCRIPT_SIZE 14
AVG_LOWERCASE_WIDTH 240
AVG_UPPERCASE_WIDTH 223
ENDPROPERTIES
CHARS 42
STARTCHAR space
ENCODING 32
SWIDTH 240 0
DWIDTH 6 0
BBX 1 1 0 0
BITMAP
00
ENDCHAR
STARTCHAR exclam
ENCODING 33
SWIDTH 308 0
DWIDTH 7 0
BBX 9 19 0 -1
BITMAP
0780
0780
0F00
0F00
0F00
0E00
0E00
1E00
1C00
1C00
1C00
3800
3800
0000
7000
F800
F800
F800
7000
ENDCHAR
STARTCHAR quotesingle
ENCODING 39
SWIDTH 247 0
DWIDTH 6 0
BBX 6 8 2 11
BITMAP
3C
7C
78
78
78
F0
F0
80
ENDCHAR
STARTCHAR comma
ENCODING 44
SWIDTH 242 0
DWIDTH 6 0
BBX 6 7 -1 -3
BITMAP
7C
7C
78
78
78
F0
F0
ENDCHAR
STARTCHAR period
ENCODING 46
SWIDTH 254 0
DWIDTH 6 0
BBX 5 5 0 -1
BITMAP
70
F8
F8
F8
70
ENDCHAR
STARTCHAR zero
ENCODING 48
SWIDTH 519 0
DWIDTH 12 0
BBX 12 18 1 0
BITMAP
03C0
07E0
0FE0
1FE0
3FF0
3CF0
7870
7870
7060
F060
F0E0
F0E0
F1C0
F3C0
FF80
FF80
7F00
3C00
ENDCHAR
STARTCHAR one
ENCODING 49
SWIDTH 365 0
DWIDTH 9 0
BBX 8 17 2 0
BITMAP
1F
FE
FE
FE
FC
1C
3C
3C
3C
3C
38
78
78
78
78
F8
C0
ENDCHAR
STARTCHAR two
ENCODING 50
SWIDTH 512 0
DWIDTH 12 0
BBX 13 17 0 1
BITMAP
03E0
0FF0
1FF8
1FF8
3EF8
3C78
20F0
01F0
03E0
0FC0
1F80
3E00
7C00
7FE0
FFE0
FFC0
FFC0
ENDCHAR
STARTCHAR three
ENCODING 51
SWIDTH 503 0
DWIDTH 12 0
BBX 12 18 0 0
BITMAP
1FF0
1FF0
1FF0
1FF0
03F0
07E0
1F80
3F00
3FC0
3FE0
23E0
01F0
01E0
FBE0
FFC0
FFC0
7F00
3E00
ENDCHAR
STARTCHAR four
ENCODING 52
SWIDTH 504 0
DWIDTH 12 0
BBX 11 18 1 0
BITMAP
1E00
1E00
1C60
3DE0
3DE0
3BC0
7BC0
7BC0
73C0
F3C0
FFE0
FFE0
FFC0
FFC0
0780
0780
0F80
0E00
ENDCHAR
STARTCHAR five
ENCODING 53
SWIDTH 495 0
DWIDTH 12 0
BBX 11 18 1 0
BITMAP
3FE0
3FE0
3FE0
3FE0
7800
7800
7F00
7FC0
7FE0
83E0
03E0
01E0
F3C0
F3C0
FF80
FF00
7E00
3C00
ENDCHAR
STARTCHAR six
ENCODING 54
SWIDTH 523 0
DWIDTH 13 0
BBX 12 18 1 0
BITMAP
03C0
0FE0
1FF0
1FF0
3EE0
7C80
7C00
7800
7F80
FFC0
FFE0
F8E0
F8E0
F9E0
7FE0
7FC0
3F80
1F00
ENDCHAR
STARTCHAR seven
ENCODING 55
SWIDTH 384 0
DWIDTH 9 0
BBX 10 18 1 0
BITMAP
01C0
3FC0
7F80
7F80
7F80
0F00
0F00
1F00
1E00
1E00
3C00
3C00
3C00
7800
7800
7800
F000
E000
ENDCHAR
STARTCHAR eight
ENCODING 56
SWIDTH 563 0
DWIDTH 14 0
BBX 14 18 0 0
BITMAP
01F0
07F8
0FFC
1FFC
1E3C
1E3C
1E78
0FF0
1FF0
3FF0
7878
7078
7078
F0F0
FFF0
7FE0
7FC0
1F00
ENDCHAR
STARTCHAR nine
ENCODING 57
SWIDTH 534 0
DWIDTH 13 0
BBX 11 18 2 0
BITMAP
1F00
7F80
7FC0
FFE0
F1E0
F1E0
F1E0
FFE0
FFE0
7FE0
1BC0
03C0
07C0
0F80
3F00
3E00
3C00
7000
ENDCHAR
STARTCHAR question
ENCODING 63
SWIDTH 483 0
DWIDTH 12 0
BBX 10 19 2 -1
BITMAP
0F80
3FC0
7FC0
73C0
63C0
47C0
0F80
1F00
1E00
3C00
3800
3800
0000
0000
7800
7800
FC00
F800
7000
ENDCHAR
STARTCHAR A
ENCODING 65
SWIDTH 478 0
DWIDTH 11 0
BBX 12 18 -1 0
BITMAP
0030
07F0
07F0
07F0
07F0
0FF0
0EF0
0EF0
1EF0
1EF0
1CF0
3FE0
3FE0
3FE0
38E0
79E0
79E0
F9E0
ENDCHAR
STARTCHAR B
ENCODING 66
SWIDTH 473 0
DWIDTH 11 0
BBX 12 18 0 0
BITMAP
0FE0
1FF0
1FF0
1DF0
1C70
3CF0
3FE0
3FC0
3F80
39C0
38E0
78E0
79E0
7FE0
7FC0
7F80
FF00
F800
ENDCHAR
STARTCHAR C
ENCODING 67
SWIDTH 459 0
DWIDTH 11 0
BBX 11 18 1 0
BITMAP
03C0
0FE0
1FE0
1FE0
3E80
7C00
7800
7800
F800
F000
F000
F000
F380
F780
FF00
FF00
7E00
3800
ENDCHAR
STARTCHAR D
ENCODING 68
SWIDTH 486 0
DWIDTH 12 0
BBX 12 18 0 0
BITMAP
1FC0
1FE0
1FF0
1FF0
1CF0
3C70
3C70
3CF0
3CF0
38E0
39E0
79E0
79C0
7B80
7780
7E00
FC00
F000
ENDCHAR
STARTCHAR E
ENCODING 69
SWIDTH 386 0
DWIDTH 9 0
BBX 11 18 0 0
BITMAP
07E0
1FE0
1FC0
1E00
1C00
3C00
3C00
3F80
3F80
3F80
3800
7800
7800
7800
7F00
7F00
FF00
E000
ENDCHAR
STARTCHAR F
ENCODING 70
SWIDTH 386 0
DWIDTH 9 0
BBX 11 18 0 0
BITMAP
1FE0
1FE0
1FE0
1E00
1E00
3C00
3C40
3F80
3F80
3F80
3C00
7800
7800
7800
7800
7800
F800
C000
ENDCHAR
STARTCHAR G
ENCODING 71
SWIDTH 544 0
DWIDTH 13 0
BBX 13 19 1 -1
BITMAP
01E0
07F0
0FF0
1E78
3C60
3C00
7800
7800
F000
F0F0
F3F0
F3F0
F0E0
F0E0
F1E0
FFC0
7F80
7F00
3E00
ENDCHAR
STARTCHAR H
ENCODING 72
SWIDTH 487 0
DWIDTH 12 0
BBX 13 18 0 0
BITMAP
1E78
1E78
1E70
1C70
1CF0
3CF0
3CF0
3FE0
3FE0
3FE0
39E0
79E0
79E0
79C0
71C0
73C0
F3C0
8000
ENDCHAR
STARTCHAR I
ENCODING 73
SWIDTH 245 0
DWIDTH 6 0
BBX 7 17 0 0
BITMAP
1E
1E
1E
1C
1C
3C
3C
3C
38
38
78
78
78
70
70
F0
F0
ENDCHAR
STARTCHAR J
ENCODING 74
SWIDTH 324 0
DWIDTH 8 0
BBX 11 18 -1 0
BITMAP
03E0
03C0
03C0
03C0
0380
0780
0780
0780
0700
0700
0F00
0F00
0F00
2E00
7E00
7E00
FC00
7800
ENDCHAR
STARTCHAR K
ENCODING 75
SWIDTH 507 0
DWIDTH 12 0
BBX 14 18 0 0
BITMAP
1E7C
1E78
1EF0
1EF0
1DE0
3FC0
3FC0
3F80
3F80
3F80
3FC0
7BC0
7BC0
7BC0
7BE0
73E0
F1F0
C000
ENDCHAR
STARTCHAR L
ENCODING 76
SWIDTH 347 0
DWIDTH 8 0
BBX 8 18 0 0
BITMAP
1F
1E
1E
1E
1C
3C
3C
3C
3C
38
78
78
78
78
7E
7E
FE
80
ENDCHAR
STARTCHAR M
ENCODING 77
SWIDTH 664 0
DWIDTH 16 0
BBX 18 19 -1 0
BITMAP
0027C0
07C780
07CF80
07CF80
07DF80
0FDF80
0FDF80
0FFF80
1FBF00
1FBF00
1DFF00
1DEF00
3DEF00
3DEF00
39CF00
7BCF00
7BCF00
7B9F00
F39C00
ENDCHAR
STARTCHAR N
ENCODING 78
SWIDTH 498 0
DWIDTH 12 0
BBX 13 19 0 0
BITMAP
0008
1E38
1E38
1F38
1F38
1F70
3F70
3F70
3F70
3FF0
3FE0
3BE0
7BE0
7BE0
73E0
73C0
73C0
F3C0
8000
ENDCHAR
STARTCHAR O
ENCODING 79
SWIDTH 538 0
DWIDTH 13 0
BBX 12 18 1 0
BITMAP
01E0
07F0
0FF0
1FF0
3FF0
3C70
7870
7870
7070
F070
F0E0
E0E0
E1E0
F3C0
FF80
FF00
7E00
3800
ENDCHAR
STARTCHAR P
ENCODING 80
SWIDTH 424 0
DWIDTH 10 0
BBX 11 18 0 0
BITMAP
0FC0
1FE0
1FE0
1EE0
1CE0
3CE0
3CE0
3DE0
3FC0
3F80
7F00
7800
7800
7800
7000
F000
F000
8000
ENDCHAR
STARTCHAR Q
ENCODING 81
SWIDTH 570 0
DWIDTH 14 0
BBX 13 19 1 -1
BITMAP
01E0
07F0
0FF0
1FF0
3FF0
3C70
7870
7870
7070
F070
F1E0
E3E0
E7E0
F3E0
FFF0
FFF8
7EF0
3C60
0040
ENDCHAR
STARTCHAR R
ENCODING 82
SWIDTH 489 0
DWIDTH 12 0
BBX 12 17 0 1
BITMAP
0FE0
1FF0
1FF0
1C70
1C70
3CF0
3DE0
3FC0
3F80
3F00
7B80
7B80
7BC0
73C0
71E0
F1E0
F180
ENDCHAR
STARTCHAR S
ENCODING 83
SWIDTH 475 0
DWIDTH 11 0
BBX 12 18 0 0
BITMAP
01E0
07F0
1FF0
1E70
3C60
3C00
3E00
3F80
1FC0
0FC0
07E0
03E0
21E0
73C0
7FC0
FF80
7F00
3E00
ENDCHAR
STARTCHAR T
ENCODING 84
SWIDTH 407 0
DWIDTH 10 0
BBX 9 17 2 1
BITMAP
7F80
7F80
FF80
1E00
3C00
3C00
3C00
3C00
3C00
3800
7800
7800
7800
7800
7800
F800
E000
ENDCHAR
STARTCHAR U
ENCODING 85
SWIDTH 464 0
DWIDTH 11 0
BBX 11 18 1 0
BITMAP
3CE0
3CE0
3DE0
39E0
79E0
79C0
79C0
7BC0
73C0
F3C0
F380
F380
E780
F780
FF00
FF00
FE00
7800
ENDCHAR
STARTCHAR V
ENCODING 86
SWIDTH 424 0
DWIDTH 10 0
BBX 11 18 1 0
BITMAP
39E0
39C0
39C0
7BC0
7BC0
7B80
7B80
7B80
7F80
7700
7700
7700
7700
7E00
7E00
7E00
7E00
C000
ENDCHAR
STARTCHAR W
ENCODING 87
SWIDTH 646 0
DWIDTH 16 0
BBX 16 18 1 0
BITMAP
3DCF
3DCF
3DCE
79DE
7BDE
7BDE
7BDC
7BFC
7EFC
77BC
77B8
7DF8
FDF8
FDF8
FDF0
F9F0
F9F0
8100
ENDCHAR
STARTCHAR X
ENCODING 88
SWIDTH 456 0
DWIDTH 11 0
BBX 14 18 -1 0
BITMAP
0100
063C
1F78
0F70
0FF0
0FE0
0FE0
0FC0
07C0
07C0
0FC0
0FC0
1FC0
1FC0
3FE0
7BE0
7BE0
F980
ENDCHAR
STARTCHAR Y
ENCODING 89
SWIDTH 429 0
DWIDTH 10 0
BBX 11 18 2 0
BITMAP
0800
71E0
F3C0
7380
7780
7780
7700
7F00
7E00
7E00
7C00
7C00
7800
7800
7800
F000
F000
8000
ENDCHAR
STARTCHAR Z
ENCODING 90
SWIDTH 476 0
DWIDTH 11 0
BBX 13 17 0 0
BITMAP
1FF8
1FF0
1FF0
1FF0
31E0
03C0
07C0
0F80
0F00
1E00
3E00
7C00
FFC0
FFC0
FFC0
FFC0
8000
ENDCHAR
ENDFONT
