STARTFONT 2.1
FONT -FontForge-Luckiest Guy-Book-R-Normal--24-240-75-75-P-133-ISO10646-1
SIZE 24 75 75
FONTBOUNDINGBOX 23 21 -1 -2
COMMENT "Generated by fontforge, http://fontforge.sourceforge.net"
COMMENT "Copyright (c) 2010 by Brian J. Bonislawsky DBA Astigmatic (AOETI). All rights reserved. Available under the Apache 2.0 licence.http://www.apache.org/licenses/LICENSE-2.0.html"
STARTPROPERTIES 38
FOUNDRY "FontForge"
FAMILY_NAME "Luckiest Guy"
WEIGHT_NAME "Book"
SLANT "R"
SETWIDTH_NAME "Normal"
ADD_STYLE_NAME ""
PIXEL_SIZE 24
POINT_SIZE 240
RESOLUTION_X 75
RESOLUTION_Y 75
SPACING "P"
AVERAGE_WIDTH 133
CHARSET_REGISTRY "ISO10646"
CHARSET_ENCODING "1"
FONTNAME_REGISTRY ""
CHARSET_COLLECTIONS "ISO8859-2 ISO8859-9 ISO8859-4 ISO10646-1"
FONT_NAME "LuckiestGuy-Regular"
FACE_NAME "Luckiest Guy Regular"
COPYRIGHT "Copyright (c) 2010 by Brian J. Bonislawsky DBA Astigmatic (AOETI). All rights reserved. Available under the Apache 2.0 licence.http://www.apache.org/licenses/LICENSE-2.0.html"
FONT_VERSION "1.001"
FONT_ASCENT 17
FONT_DESCENT 7
UNDERLINE_POSITION -3
UNDERLINE_THICKNESS 1
CAP_HEIGHT 16
RAW_ASCENT 703
RAW_DESCENT 296
NORM_SPACE 5
RELATIVE_WEIGHT 40
RELATIVE_SETWIDTH 50
SUPERSCRIPT_X 0
SUPERSCRIPT_Y 11
SUPERSCRIPT_SIZE 15
SUBSCRIPT_X 0
SUBSCRIPT_Y 3
SUBSCRIPT_SIZE 15
AVG_LOWERCASE_WIDTH 240
AVG_UPPERCASE_WIDTH 220
ENDPROPERTIES
CHARS 42
STARTCHAR space
ENCODING 32
SWIDTH 217 0
DWIDTH 5 0
BBX 1 1 0 0
BITMAP
00
ENDCHAR
STARTCHAR exclam
ENCODING 33
SWIDTH 301 0
DWIDTH 7 0
BBX 5 18 1 -1
BITMAP
F8
F8
F8
F8
F8
F8
F8
F8
F8
F8
F8
F0
00
70
F0
F8
F0
70
ENDCHAR
STARTCHAR quotesingle
ENCODING 39
SWIDTH 254 0
DWIDTH 6 0
BBX 6 7 0 12
BITMAP
FC
FC
F8
F8
78
78
78
ENDCHAR
STARTCHAR comma
ENCODING 44
SWIDTH 244 0
DWIDTH 6 0
BBX 5 7 0 -2
BITMAP
70
F8
F8
F8
70
30
20
ENDCHAR
STARTCHAR period
ENCODING 46
SWIDTH 243 0
DWIDTH 6 0
BBX 5 5 0 0
BITMAP
70
F8
F8
F8
70
ENDCHAR
STARTCHAR zero
ENCODING 48
SWIDTH 654 0
DWIDTH 16 0
BBX 15 17 0 0
BITMAP
07C0
0FF0
1FF8
3FF8
7FFC
7EFC
7C7E
F83E
F83E
F83E
783E
7C7C
7EFC
3FFC
3FF8
1FF0
07C0
ENDCHAR
STARTCHAR one
ENCODING 49
SWIDTH 410 0
DWIDTH 10 0
BBX 9 17 0 0
BITMAP
1F80
7F80
FF80
FF80
FF80
7F80
5F80
1F80
1F00
1F00
1F00
1F00
1F00
1F00
1F00
1F00
1F00
ENDCHAR
STARTCHAR two
ENCODING 50
SWIDTH 531 0
DWIDTH 13 0
BBX 12 18 0 0
BITMAP
0C00
7F80
7FC0
7FE0
7FE0
7FF0
43F0
03F0
03F0
03E0
07C0
0FC0
3F00
FFF0
FFE0
FFE0
FFE0
0FE0
ENDCHAR
STARTCHAR three
ENCODING 51
SWIDTH 549 0
DWIDTH 13 0
BBX 12 18 0 0
BITMAP
1F00
7FC0
FFE0
7FF0
7FF0
41F0
01F0
03F0
1FE0
1FF0
1FF0
01F0
41F0
FFF0
FFF0
FFE0
FFE0
3F80
ENDCHAR
STARTCHAR four
ENCODING 52
SWIDTH 561 0
DWIDTH 13 0
BBX 13 17 0 0
BITMAP
01F0
3DF0
3DF0
7DF0
7DF0
79F0
79F0
7BF0
7BF8
FFF8
FFF8
FFE0
03E0
03E0
03E0
03E0
03E0
ENDCHAR
STARTCHAR five
ENCODING 53
SWIDTH 552 0
DWIDTH 13 0
BBX 13 17 0 0
BITMAP
3FE0
7FE0
7FE0
7FE0
78E0
7800
7F80
7FE0
7FF0
43F0
01F0
41F8
7FF0
7FF0
FFE0
FFE0
3F80
ENDCHAR
STARTCHAR six
ENCODING 54
SWIDTH 595 0
DWIDTH 14 0
BBX 14 17 0 0
BITMAP
0FF0
1FF0
3FF0
3FF0
7E30
7C00
79C0
FFF0
FFF8
FFF8
FC7C
7C7C
7C78
7FF8
3FF8
3FF0
0FE0
ENDCHAR
STARTCHAR seven
ENCODING 55
SWIDTH 527 0
DWIDTH 13 0
BBX 12 17 0 0
BITMAP
FFF0
FFF0
FFF0
FFF0
FFF0
03E0
03E0
07E0
07C0
0FC0
0FC0
1F80
1F80
1F00
3F00
3F00
5E00
ENDCHAR
STARTCHAR eight
ENCODING 56
SWIDTH 593 0
DWIDTH 14 0
BBX 13 17 0 0
BITMAP
0FC0
3FF0
7FF0
7FF8
7CF8
7878
7870
3FF0
3FF0
7FF8
7878
F878
FCF8
7FF8
7FF8
3FF0
0FC0
ENDCHAR
STARTCHAR nine
ENCODING 57
SWIDTH 577 0
DWIDTH 14 0
BBX 13 17 0 0
BITMAP
0F80
3FE0
7FF0
7FF0
F9F8
F8F8
F8F8
7FF8
7FF8
3FF8
00F8
41F0
3FF0
7FE0
7FE0
7FC0
1F00
ENDCHAR
STARTCHAR question
ENCODING 63
SWIDTH 576 0
DWIDTH 14 0
BBX 13 18 0 -1
BITMAP
3F80
FFE0
7FF0
7FF0
7FF8
41F8
01F8
03F8
07F0
0FE0
0F80
0F00
0000
0E00
1F00
1F00
1F00
0E00
ENDCHAR
STARTCHAR A
ENCODING 65
SWIDTH 647 0
DWIDTH 16 0
BBX 15 17 0 0
BITMAP
07E0
0FE0
0FE0
1FF0
1FF0
1FF0
3FF8
3EF8
3EF8
3EFC
7FFC
7FFC
7FFC
FFFE
FC7E
FC7E
1C60
ENDCHAR
STARTCHAR B
ENCODING 66
SWIDTH 616 0
DWIDTH 15 0
BBX 13 17 1 0
BITMAP
7F80
FFE0
FFF0
FFF0
FFF8
F9F8
F9F0
FBF0
FFC0
FFF0
F9F8
F9F8
F9F8
FFF8
FFF8
FFF0
FFE0
ENDCHAR
STARTCHAR C
ENCODING 67
SWIDTH 536 0
DWIDTH 13 0
BBX 12 17 0 0
BITMAP
03F0
0FF0
1FF0
3FF0
7FF0
7F80
7E00
FC00
FC00
FC00
FC10
FFF0
7FF0
7FF0
3FF0
1FF0
07C0
ENDCHAR
STARTCHAR D
ENCODING 68
SWIDTH 604 0
DWIDTH 15 0
BBX 13 17 1 0
BITMAP
3E00
FFC0
FFE0
FFF0
FFF0
F9F8
F8F8
F8F8
F8F8
F8F8
F8F0
F9F0
FFF0
FFE0
FFC0
FF00
F800
ENDCHAR
STARTCHAR E
ENCODING 69
SWIDTH 500 0
DWIDTH 12 0
BBX 11 17 1 0
BITMAP
FFE0
FFE0
FFE0
FFC0
FFC0
F800
FF80
FF80
FF80
FF80
F800
F800
FFC0
FFC0
FFC0
FFC0
FFC0
ENDCHAR
STARTCHAR F
ENCODING 70
SWIDTH 509 0
DWIDTH 12 0
BBX 11 17 1 0
BITMAP
FFE0
FFE0
FFE0
FFC0
FFC0
F800
FFC0
FFC0
FFC0
FFC0
F800
F800
F800
F800
F800
F800
F800
ENDCHAR
STARTCHAR G
ENCODING 71
SWIDTH 648 0
DWIDTH 16 0
BBX 15 17 0 0
BITMAP
07F8
0FF8
1FF8
3FF8
7FF8
7E00
FC00
FCFE
FCFE
FDFE
FC7E
FE3E
7FFE
7FFE
3FFE
1FFC
0FF0
ENDCHAR
STARTCHAR H
ENCODING 72
SWIDTH 647 0
DWIDTH 16 0
BBX 15 17 0 0
BITMAP
007C
7E7C
7C7C
7C7C
7C7C
7C7C
7C7C
7C7C
7C7C
7FFC
7FFC
7FFC
7C7C
7C7C
7C7C
7C7C
FC7E
ENDCHAR
STARTCHAR I
ENCODING 73
SWIDTH 319 0
DWIDTH 8 0
BBX 6 17 1 0
BITMAP
04
FC
FC
FC
FC
FC
F8
F8
F8
F8
F8
F8
F8
F8
F8
F8
F0
ENDCHAR
STARTCHAR J
ENCODING 74
SWIDTH 531 0
DWIDTH 13 0
BBX 12 17 0 0
BITMAP
03E0
03F0
03F0
03F0
03F0
01F0
01F0
01F0
01F0
01F0
03F0
83E0
FFE0
FFE0
FFC0
FF80
7F00
ENDCHAR
STARTCHAR K
ENCODING 75
SWIDTH 636 0
DWIDTH 15 0
BBX 15 18 0 -1
BITMAP
7C7E
7CFE
7CFC
7DF8
7FF0
7FF0
7FE0
7FC0
7FC0
7FE0
7FE0
7FF0
7FF0
7FF8
79FC
78FC
787E
F800
ENDCHAR
STARTCHAR L
ENCODING 76
SWIDTH 474 0
DWIDTH 11 0
BBX 10 16 1 1
BITMAP
FC00
FC00
FC00
FC00
FC00
F800
F800
F800
F800
F800
FFC0
FFC0
FFC0
FFC0
FFC0
FF80
ENDCHAR
STARTCHAR M
ENCODING 77
SWIDTH 812 0
DWIDTH 20 0
BBX 18 17 1 0
BITMAP
1C1FC0
FC1FC0
FC3FC0
FE3FC0
FE3F80
FE7F80
FF7F80
FFFF80
FFFF80
FFFF80
FFFF80
FBDF80
FBDF80
FBDF80
F99F80
F99F80
F81F80
ENDCHAR
STARTCHAR N
ENCODING 78
SWIDTH 725 0
DWIDTH 17 0
BBX 17 17 0 0
BITMAP
7E1F80
7F1F00
7F1F00
7F1F00
7F9F00
7F9F00
7FDF00
7FDF00
7FFF00
7DFF00
7DFF00
7CFF00
7CFF00
7CFF00
7C7F00
7C7F00
FC6000
ENDCHAR
STARTCHAR O
ENCODING 79
SWIDTH 659 0
DWIDTH 16 0
BBX 15 16 0 0
BITMAP
03C0
0FF0
3FF8
3FFC
7FFC
7EFE
FC7E
F83E
F83E
FC7E
7EFE
7FFC
3FFC
3FF8
0FE0
0100
ENDCHAR
STARTCHAR P
ENCODING 80
SWIDTH 617 0
DWIDTH 15 0
BBX 13 17 1 0
BITMAP
FFC0
FFE0
FFF0
FFF8
FFF8
F8F8
F8F8
F9F8
FFF8
FFF0
FFC0
FF00
F800
F800
F800
F800
F800
ENDCHAR
STARTCHAR Q
ENCODING 81
SWIDTH 712 0
DWIDTH 17 0
BBX 16 19 0 -2
BITMAP
03C0
0FF8
1FFC
3FFE
7FFF
7FFF
FC3F
FC3F
FC1F
FC1F
FC3F
7FFF
7FFE
3FFE
1FFC
0FFE
01FE
003C
0010
ENDCHAR
STARTCHAR R
ENCODING 82
SWIDTH 627 0
DWIDTH 15 0
BBX 14 17 0 0
BITMAP
3FE0
7FF0
7FF8
7FFC
7C7C
7C7C
7C7C
7CFC
7FFC
7FF8
7FF0
7FF0
7DF0
7CF8
7CFC
7C7C
FC60
ENDCHAR
STARTCHAR S
ENCODING 83
SWIDTH 552 0
DWIDTH 13 0
BBX 13 17 0 0
BITMAP
1FF0
3FF0
7FE0
7FE0
FFE0
F800
FF80
7FE0
7FF0
3FF0
01F8
41F8
7FF0
7FF0
FFE0
FFE0
3F80
ENDCHAR
STARTCHAR T
ENCODING 84
SWIDTH 564 0
DWIDTH 14 0
BBX 13 17 0 0
BITMAP
FFF8
FFF8
FFF8
FFF8
FFF8
FF80
0F80
0F80
0F80
0F80
0F80
0F80
0F80
0F80
0F80
0F80
0F00
ENDCHAR
STARTCHAR U
ENCODING 85
SWIDTH 645 0
DWIDTH 15 0
BBX 15 17 0 -1
BITMAP
7E7E
7C7E
7C7E
7C7E
FC7E
FC7C
FC7C
FC7C
FC7C
7C7C
7CF8
7CF8
7FF8
3FF0
3FE0
1FC0
0200
ENDCHAR
STARTCHAR V
ENCODING 86
SWIDTH 634 0
DWIDTH 15 0
BBX 15 17 0 0
BITMAP
387C
F87E
FC7C
FC7C
7C7C
7CFC
7EF8
3EF8
3EF8
3FF8
1FF0
1FF0
1FF0
0FF0
0FE0
0FE0
07E0
ENDCHAR
STARTCHAR W
ENCODING 87
SWIDTH 929 0
DWIDTH 22 0
BBX 22 17 0 0
BITMAP
1C78E0
FCF8FC
FCFCF8
7CFCF8
7CFCF8
7EFDF8
7EFDF8
7FFFF8
7FFFF0
3FFFF0
3FFFF0
3FDFF0
3FCFF0
3FCFF0
3FCFE0
1FCFE0
1F8FE0
ENDCHAR
STARTCHAR X
ENCODING 88
SWIDTH 610 0
DWIDTH 15 0
BBX 16 17 -1 0
BITMAP
0C3F
7E7E
3E7E
3F7C
1FF8
1FF8
0FF0
0FF0
07E0
0FF0
1FF0
1FF8
3FF8
7E7C
7E7E
FC7E
0C30
ENDCHAR
STARTCHAR Y
ENCODING 89
SWIDTH 628 0
DWIDTH 15 0
BBX 16 16 0 0
BITMAP
FC3F
7C7E
7EFC
7EF8
3FF8
3FF0
3FE0
1FC0
1FC0
1F80
1F80
1F80
1F80
1F80
1F80
1F80
ENDCHAR
STARTCHAR Z
ENCODING 90
SWIDTH 508 0
DWIDTH 12 0
BBX 11 17 0 0
BITMAP
7FE0
7FE0
7FE0
7FE0
43E0
07C0
0FC0
0F80
1F00
3E00
7E00
7FE0
FFE0
FFE0
FFE0
FFE0
7E00
ENDCHAR
ENDFONT
